inDegrees=no
num_controls=7
num_derivatives=13
num_iterations=102
num_multipliers=7
num_parameters=0
num_slacks=7
num_states=26
objective=0.448462
objective_accelerations=0.049411
objective_balance=0.007656
objective_effort=0.037036
objective_height=0.349418
objective_ligament=0.004940
solver_duration=1449.381773
status=Solve_Succeeded
success=true
DataType=double
version=3
OpenSimVersion=4.5
endheader
time	/jointset/ground_pelvis/pelvis_tilt/value	/jointset/ground_pelvis/pelvis_tx/value	/jointset/ground_pelvis/pelvis_ty/value	/jointset/hip_l/hip_flexion_l/value	/jointset/hip_l/hip_adduction_l/value	/jointset/hip_l/hip_rotation_l/value	/jointset/back/lumbar_extension/value	/jointset/patellofemoral_l/patellar_flexion_l/value	/jointset/knee_l/knee_flexion_l/value	/jointset/knee_l/knee_adduction_l/value	/jointset/knee_l/knee_rotation_l/value	/jointset/ankle_l/ankle_angle_l/value	/jointset/subtalar_l/subtalar_angle_l/value	/jointset/ground_pelvis/pelvis_tilt/speed	/jointset/ground_pelvis/pelvis_tx/speed	/jointset/ground_pelvis/pelvis_ty/speed	/jointset/hip_l/hip_flexion_l/speed	/jointset/hip_l/hip_adduction_l/speed	/jointset/hip_l/hip_rotation_l/speed	/jointset/back/lumbar_extension/speed	/jointset/patellofemoral_l/patellar_flexion_l/speed	/jointset/knee_l/knee_flexion_l/speed	/jointset/knee_l/knee_adduction_l/speed	/jointset/knee_l/knee_rotation_l/speed	/jointset/ankle_l/ankle_angle_l/speed	/jointset/subtalar_l/subtalar_angle_l/speed	/forceset/tau_hip_flexion_l	/forceset/tau_hip_adduction_l	/forceset/tau_hip_rotation_l	/forceset/tau_knee_flexion_l	/forceset/tau_ankle_angle_l	/forceset/tau_subtalar_angle_l	/forceset/tau_lumbar_extension	lambda_cid13_p0	lambda_cid13_p1	lambda_cid13_p2	lambda_cid13_p3	lambda_cid13_p4	lambda_cid13_p5	lambda_cid14_p0	/jointset/ground_pelvis/pelvis_tilt/accel	/jointset/ground_pelvis/pelvis_tx/accel	/jointset/ground_pelvis/pelvis_ty/accel	/jointset/hip_l/hip_flexion_l/accel	/jointset/hip_l/hip_adduction_l/accel	/jointset/hip_l/hip_rotation_l/accel	/jointset/back/lumbar_extension/accel	/jointset/patellofemoral_l/patellar_flexion_l/accel	/jointset/knee_l/knee_flexion_l/accel	/jointset/knee_l/knee_adduction_l/accel	/jointset/knee_l/knee_rotation_l/accel	/jointset/ankle_l/ankle_angle_l/accel	/jointset/subtalar_l/subtalar_angle_l/accel	gamma_cid13_p0	gamma_cid13_p1	gamma_cid13_p2	gamma_cid13_p3	gamma_cid13_p4	gamma_cid13_p5	gamma_cid14_p0
1.5	-0.4559825442628502	-0.07841301730129908	0.7611104401703422	1.2786977864429	-0.309944581420521	-0.04758385656858716	-0.345811056199705	0.6851419023541769	0.6851419023542011	-0.1733522869005812	0.1738563760923677	0.02776322045293416	-0.05108102062563696	0.753533971289842	0.27262623901028	0.4938161338912989	-2.367641327681133	0.03362188597209303	-0.6014869332046282	0.5619862917720473	-1.736163281753658	-1.736163281753668	0.003238883833673906	-0.002469130312458964	-0.2130726927547029	0.01185808174022137	-0.2542953371112114	0.02579488381642811	-0.02083253657301762	-0.1989022760718245	0.1460911793258517	0.0352916535718386	0.2277366381898872	7.721413240535172	-19.34190020620228	5.722734547092072	-5.622534037315664	-610.4315573618632	-52.25114796368734	-28.51191582178883	0.6364040233937228	0.688675892959113	-0.2935286640473705	-1.558193604608207	0.5325076452829444	-0.2581321069612632	1.755005624316904	-1.11761699253925	-1.117616992539237	-0.06772183970059119	-0.03125079706645173	-0.1513164592686418	0.5050729758080014	2.538828797009477e-07	7.206297961184107e-07	-1.257488071903236e-06	-6.561428021913837e-08	3.421765736859737e-07	-7.432519738772885e-08	2.853207280083417e-07
1.51	-0.448415802113958	-0.07565255165052015	0.7660329563366489	1.254945914947174	-0.3095823587807046	-0.05361328563779518	-0.3401047985907486	0.6677271103187182	0.6677271103187175	-0.1733233636200486	0.1738328049518892	0.02562525614762344	-0.05093783048210174	0.7597033672299743	0.279434670735181	0.4905862562438271	-2.382382402415893	0.03886226535795122	-0.6044670288528621	0.5791996707099744	-1.746509370013851	-1.746509370013854	0.0026734783710233	-0.002134175243316409	-0.2144567082873206	0.01682502920744497	-0.2461823438516925	0.0251342849214343	-0.02071484899208166	-0.1974635870024612	0.1457592639149366	0.03466769073028432	0.2214582724155553	7.859636129875683	-19.20795528612921	5.830270812988344	-5.551260605456474	-605.8739337897016	-52.56714113058499	-29.50311533404355	0.5905609633220633	0.6721191061252295	-0.3527966918338283	-1.379457880410318	0.5256470156750486	-0.3279784877106513	1.694670132141937	-0.9502792731121743	-0.9502792731114934	-0.03161247333943056	0.08263100946982775	-0.1224110031900471	0.4991330080866491	1.314021700072211e-07	9.766097292175476e-07	-6.524025082657189e-07	6.136402849529655e-08	2.717442707712338e-07	7.355884944943569e-09	2.218447226547862e-07
1.52	-0.4407906952888647	-0.07282496322371827	0.7709201578511334	1.231057154009602	-0.3091665635609487	-0.05967452170227686	-0.3342283739716906	0.6502174224945867	0.6502174224945615	-0.1732962269089163	0.1738159358322156	0.02347535830640019	-0.05074364538871288	0.7652069065300698	0.2860507942148679	0.4867532035268854	-2.395019216050664	0.0443364019599688	-0.6078483322593443	0.5960196937923548	-1.755142439488157	-1.755142439488159	0.002881569953575074	-0.001128726151531497	-0.2154593999372068	0.02205707171095295	-0.2380693505921737	0.02447368602644028	-0.02059716141114398	-0.1960248979330981	0.1454273485040214	0.03404372788872978	0.2151799066412233	7.989874109553092	-19.07515192396054	5.940890038402611	-5.464303817313351	-601.4397943388744	-52.93786258464151	-30.47628667103452	0.5032326953863453	0.6502142439163185	-0.4141636779413593	-1.137341384609663	0.5792590885148213	-0.3383736586109382	1.676334453207571	-0.775013235361925	-0.7750132353618281	0.08697756933988179	0.1028480074653813	-0.0750516827223334	0.5580919830648768	6.099221454737284e-08	1.160899102368123e-06	-3.340172102906144e-07	1.350734329513596e-07	2.36363376472752e-07	6.22375711948136e-08	1.913907965163181e-07
1.53	-0.4331137651318171	-0.06993221295503238	0.7757660910933711	1.207052201140354	-0.3086954678283888	-0.06576924176317277	-0.3281860348100576	0.6326295043728686	0.6326295043728493	-0.1732656039148018	0.1738109328378092	0.02131714113103179	-0.05049647368862377	0.7700764210077879	0.2924625221507848	0.4823399129279817	-2.405649009397427	0.04986373011958778	-0.6109051699226981	0.6123532164417715	-1.76220515780553	-1.762205157805534	0.003134509134473292	5.015681340974102e-05	-0.2161408851873144	0.02735851801870546	-0.2298547902177451	0.02354163623752047	-0.02048958737098522	-0.1947354197189919	0.1453232387823467	0.03328574143614348	0.2087871817217791	8.184322733380098	-18.89708386478138	6.04623338917903	-5.39071123539434	-597.0774835513928	-53.24692810511404	-31.42725188199135	0.4634180304664624	0.6311737317327386	-0.4688937055620337	-0.9774296248258625	0.5364839051689441	-0.2605507108187032	1.59762285693779	-0.6365367729527259	-0.6365367729532052	-0.02160648274921642	0.1138426861766933	-0.05821138562374498	0.5131864374460833	4.590743546101962e-08	1.269017255573354e-06	-3.202509445818206e-07	1.52184626632903e-07	2.38224603829044e-07	8.864489910670634e-08	1.960228295438798e-07
1.54	-0.4253912183886919	-0.06697644107432664	0.7805650950386803	1.182950624074615	-0.3081696959691359	-0.07188877257882639	-0.3219832080847047	0.6149780319393711	0.6149780319393577	-0.1732356632439212	0.1738154055220858	0.01915340621526856	-0.050196884428894	0.7743302237455826	0.2986551166188396	0.4773673441411918	-2.414344055348837	0.05527162729854702	-0.6128104832108963	0.6281172065363506	-1.767853301844016	-1.767853301844023	0.002745105306811153	0.0007664095850793595	-0.2165629480161727	0.03254058363908383	-0.221640229843317	0.02260958644860072	-0.02038201333082693	-0.1934459415048856	0.145219129060673	0.03252775498355725	0.2023944568023349	8.370271952327183	-18.71989500711081	6.154421029431088	-5.296064688826813	-592.8435873045047	-53.61132711705506	-32.35178639902013	0.3800903474016404	0.6063875503438948	-0.5260193155186091	-0.7503919055391038	0.5553728923828716	-0.1080687835798588	1.562427942239999	-0.4920983795846473	-0.4920983795846545	-0.04149103237219074	0.01032196881110131	-0.02316719847246564	0.5342158455900484	3.551615810333745e-08	1.340193953695825e-06	-3.051039717388699e-07	1.639345391857676e-07	2.425507154495056e-07	1.119043355460013e-07	1.981509913131865e-07
1.55	-0.4176293469485981	-0.06395993675833909	0.7853116255447038	1.158772025167665	-0.3075901471000391	-0.07802326565060426	-0.3156256383041951	0.5972774434367983	0.5972774434367967	-0.1732113039876774	0.1738258338547378	0.01698683961036279	-0.04984574277789885	0.7779239396813031	0.3045984608639088	0.4718496307999126	-2.421017861088479	0.06064921132563007	-0.6140495536764436	0.6432994133334864	-1.771994974808064	-1.771994974808079	0.002163511915765406	0.00135004058357859	-0.2166971269111178	0.03770208132027679	-0.2134235461920113	0.02160075837692197	-0.02033135630832854	-0.1921068626127564	0.1450522861910518	0.03164990587825652	0.1959507615786452	8.52636134025177	-18.48693426537487	6.255444948702434	-5.141954677823951	-588.6932403433365	-53.89234827882841	-33.24554038562836	0.3310052773183015	0.5812495250364836	-0.5779655433819817	-0.5721796557545489	0.5304621692782951	-0.125832074354206	1.481516613640428	-0.3348275702191272	-0.3348275702207195	-0.06075030513547693	0.08712729656394042	-0.0005428004994368889	0.5090820225946016	3.053261099825426e-08	1.368807670962074e-06	-2.883661841543905e-07	1.695073234816765e-07	2.497168024178144e-07	1.315368535494774e-07	1.973942579371124e-07
1.56	-0.409835139737015	-0.06088541066721125	0.7900003152773247	1.134537427253804	-0.3069565201883901	-0.08416895060629996	-0.3091191665426762	0.5795435130415045	0.579543513041514	-0.1731916120278774	0.1738430472236138	0.01482053130340877	-0.04944259309144963	0.7807973780434656	0.3102594716469	0.4657991894606572	-2.42554385673123	0.06608723580899405	-0.6150488599944726	0.6578976027382242	-1.774521680388281	-1.77452168038831	0.001811646018097424	0.002123416829876098	-0.2165112884258193	0.042942190729897	-0.2052068625407054	0.02059193030524335	-0.02028069928583115	-0.1907677837206271	0.1448854433214307	0.03077205677295595	0.1895070663549556	8.673176484260136	-18.25449766735086	6.359006014877046	-4.962188612793663	-584.6807273650733	-54.22900143969836	-34.1043369158931	0.2360348326900745	0.549920857928282	-0.632564915113863	-0.320829886160419	0.5674609836390585	-0.06011595407621358	1.445624463760389	-0.1691049028184421	-0.169104902818617	0.004454466303362912	0.04827101837215738	0.04083627757622247	0.5499381912754968	1.977938123720894e-08	1.411115376953459e-06	-2.553635548951003e-07	1.789467693192203e-07	2.53450821864506e-07	1.512488004228826e-07	1.948033388365386e-07
1.57	-0.4020157941923251	-0.05775571036043255	0.7946259072610737	1.110268364861995	-0.3062681381763637	-0.09032399638569834	-0.3024696807644484	0.5617926622181689	0.5617926622181796	-0.1731738646598592	0.1738694494072386	0.01265785815442035	-0.04898653315694158	0.7829495454779537	0.3156304469303908	0.4592367697535278	-2.427898433755965	0.07160436869660028	-0.6159504154433744	0.6718992978460365	-1.775351629768544	-1.77535162976857	0.001803833966612544	0.003220077013882096	-0.215952747827325	0.04829212118990626	-0.197038997446634	0.01942599687497356	-0.02029265109893271	-0.1895271264570349	0.1450196505972579	0.02974599333959087	0.1830952460523868	8.903595641147575	-17.97469763698323	6.457720354526466	-4.878713839231276	-580.8464950158556	-54.49512339379149	-34.92400890130971	0.1864868882439969	0.5232047342311577	-0.6803956139335796	-0.1372330207646226	0.54593791997231	-0.1034927908325528	1.362403775095181	0.004550799335445251	0.004550799335807365	0.006755675210459819	0.1499342605936378	0.07396531843322597	0.5306532511751788	1.814048156211031e-09	1.470540568851264e-06	-2.020298735422969e-07	1.932195420838079e-07	2.52894756909176e-07	1.710600333836992e-07	1.899196875803402e-07
1.58	-0.3941785911354072	-0.05457379652668461	0.7991834120246673	1.085986864417912	-0.305524165139731	-0.09648772120969275	-0.2956831856869816	0.5440424100520239	0.5440424100520358	-0.173154164469139	0.1739087323411392	0.01050289088490631	-0.04847634736227111	0.7843688804890745	0.3207021770407495	0.4521817454295542	-2.428031467186085	0.0772054407302427	-0.616784668913692	0.6852994625859898	-1.774401948950185	-1.774401948950209	0.002202210558522559	0.004699566885040829	-0.2149701125309435	0.05376736276237706	-0.1888711323525633	0.01826006344470388	-0.02030460291203501	-0.1882864691934425	0.145153857873085	0.02871992990622592	0.176683425749818	9.124199253370104	-17.6949559842498	6.558473821570545	-4.765119601065594	-577.156106098689	-54.81513110213669	-35.70060409035762	0.08946834801660568	0.4900718233018417	-0.7310858384827087	0.1234788327623564	0.5842488128462973	-0.04665555835939916	1.325318390188561	0.1868211369054964	0.1868211369054963	0.08569219498233951	0.124836955802708	0.1256552171536313	0.5750004137678042	-8.54805893347437e-09	1.518533958556919e-06	-1.988567547334724e-07	1.987903765903464e-07	2.553981653736066e-07	1.932152235256012e-07	1.899242623345084e-07
